<?xml version="1.0" standalone="no"?>
<!DOCTYPE svg PUBLIC "-//W3C//DTD SVG 20010904//EN"
 "http://www.w3.org/TR/2001/REC-SVG-20010904/DTD/svg10.dtd">
<svg version="1.0" xmlns="http://www.w3.org/2000/svg"
 width="50.000000pt" height="50.000000pt" viewBox="0 0 50.000000 50.000000"
 preserveAspectRatio="xMidYMid meet">

<g transform="translate(0.000000,50.000000) scale(0.100000,-0.100000)"
fill="#fff" stroke="none">
<path d="M300 398 c0 -91 0 -91 -20 -73 -34 31 -36 6 -2 -28 l32 -32 32 32
c34 34 32 59 -2 28 -20 -18 -20 -18 -20 73 0 55 -4 92 -10 92 -6 0 -10 -37
-10 -92z"/>
<path d="M4 469 c-11 -18 13 -34 30 -20 8 7 30 11 48 9 l33 -3 46 -181 c25
-100 50 -188 55 -195 4 -7 8 -24 8 -38 2 -51 67 -53 74 -2 4 27 52 31 52 3 0
-38 46 -56 70 -27 7 8 10 25 6 40 -6 24 -9 25 -94 25 -91 0 -112 8 -112 42 0
16 10 18 93 18 l92 0 38 101 c21 55 36 103 33 106 -9 10 -13 3 -49 -92 l-34
-90 -91 -3 -91 -3 -10 38 c-6 21 -22 87 -37 146 -15 60 -33 115 -41 123 -17
17 -109 19 -119 3z m272 -420 c10 -17 -13 -36 -27 -22 -12 12 -4 33 11 33 5 0
12 -5 16 -11z m130 0 c10 -17 -13 -36 -27 -22 -12 12 -4 33 11 33 5 0 12 -5
16 -11z"/>
</g>
</svg>
