<?xml version="1.0" standalone="no"?>
<!DOCTYPE svg PUBLIC "-//W3C//DTD SVG 20010904//EN"
 "http://www.w3.org/TR/2001/REC-SVG-20010904/DTD/svg10.dtd">
<svg version="1.0" xmlns="http://www.w3.org/2000/svg"
 width="64.000000pt" height="64.000000pt" viewBox="0 0 64.000000 64.000000"
 preserveAspectRatio="xMidYMid meet">

<g transform="translate(0.000000,64.000000) scale(0.100000,-0.100000)"
fill="#eaaf57" stroke="none">
<path d="M93 624 c-3 -9 -1 -25 5 -35 7 -10 12 -28 12 -38 0 -11 8 -25 18 -30
15 -9 14 -10 -6 -11 -13 0 -32 5 -43 10 -15 9 -17 14 -7 29 15 24 4 51 -22 51
-29 0 -36 -27 -16 -60 16 -28 16 -29 -6 -32 l-23 -3 0 -200 0 -200 118 -3
c110 -2 117 -4 117 -23 0 -39 -19 -59 -55 -59 -19 0 -35 -4 -35 -10 0 -6 63
-10 170 -10 107 0 170 4 170 10 0 6 -16 10 -35 10 -36 0 -55 20 -55 59 0 19 7
21 118 23 l117 3 0 200 0 200 -37 3 c-29 2 -38 8 -38 21 0 22 17 37 45 43 14
2 20 11 20 28 0 20 -5 25 -25 25 -18 0 -26 -6 -28 -22 -2 -12 -10 -27 -18 -33
-8 -7 -14 -23 -14 -36 0 -15 -6 -24 -15 -24 -8 0 -15 9 -15 20 0 11 -4 28 -9
38 -5 9 -12 25 -15 35 -4 12 -14 17 -28 15 -34 -5 -32 -50 2 -58 16 -4 26 -14
28 -28 3 -20 -1 -22 -40 -21 -36 0 -47 5 -67 30 -22 28 -22 31 -6 43 25 18 15
51 -15 51 -22 0 -25 -4 -24 -32 2 -28 -2 -33 -20 -33 -12 0 -31 -7 -44 -15
-16 -12 -26 -13 -42 -5 -23 12 -24 14 -8 39 15 24 4 51 -22 51 -44 0 -33 -61
20 -107 l25 -22 -35 -1 c-39 0 -80 23 -80 46 0 8 5 23 12 33 15 24 4 51 -22
51 -11 0 -23 -7 -27 -16z m274 -96 c13 -12 23 -33 23 -47 0 -32 -37 -71 -67
-71 -30 0 -73 42 -73 70 0 28 43 70 71 70 13 0 33 -10 46 -22z m-137 -59 c0
-32 53 -79 90 -79 37 0 90 47 90 79 0 20 5 21 105 21 l105 0 0 -160 0 -160
-300 0 -300 0 0 160 0 160 105 0 c100 0 105 -1 105 -21z m150 -393 c0 -13 3
-31 6 -40 5 -14 -4 -16 -66 -16 -62 0 -71 2 -66 16 3 9 6 27 6 40 0 23 3 24
60 24 57 0 60 -1 60 -24z"/>
<path d="M298 519 c-44 -25 -3 -93 42 -69 26 14 26 56 1 70 -23 12 -22 12 -43
-1z"/>
<path d="M180 345 l-34 -35 37 -37 c43 -44 64 -37 22 7 l-29 30 27 28 c15 15
27 31 27 35 0 15 -18 5 -50 -28z"/>
<path d="M310 315 c-35 -35 -61 -68 -57 -72 8 -7 137 115 137 129 0 18 -19 4
-80 -57z"/>
<path d="M410 373 c0 -4 12 -20 27 -35 l27 -28 -29 -30 c-42 -44 -21 -51 22
-7 l37 37 -34 35 c-32 33 -50 43 -50 28z"/>
<path d="M170 210 c0 -5 14 -10 30 -10 17 0 30 5 30 10 0 6 -13 10 -30 10 -16
0 -30 -4 -30 -10z"/>
<path d="M250 210 c0 -6 43 -10 110 -10 67 0 110 4 110 10 0 6 -43 10 -110 10
-67 0 -110 -4 -110 -10z"/>
<path d="M310 70 c0 -11 5 -20 10 -20 6 0 10 9 10 20 0 11 -4 20 -10 20 -5 0
-10 -9 -10 -20z"/>
</g>
</svg>
