<?xml version="1.0" standalone="no"?>
<!DOCTYPE svg PUBLIC "-//W3C//DTD SVG 20010904//EN"
 "http://www.w3.org/TR/2001/REC-SVG-20010904/DTD/svg10.dtd">
<svg version="1.0" xmlns="http://www.w3.org/2000/svg"
 width="64.000000pt" height="64.000000pt" viewBox="0 0 64.000000 64.000000"
 preserveAspectRatio="xMidYMid meet">

<g transform="translate(0.000000,64.000000) scale(0.100000,-0.100000)"
fill="#eaaf57" stroke="none">
<path d="M135 531 c-16 -4 -45 -15 -62 -25 l-33 -17 0 -174 c0 -116 4 -175 10
-175 6 0 25 8 43 17 19 10 57 17 93 17 50 1 74 -5 143 -38 75 -35 88 -38 145
-34 34 3 76 13 94 22 l32 17 0 173 c0 95 -3 175 -6 178 -3 3 -20 -2 -37 -11
-21 -10 -56 -16 -102 -16 -58 1 -80 6 -131 32 -65 34 -139 47 -189 34z m197
-56 c47 -23 87 -35 115 -35 35 0 43 -4 49 -22 10 -35 35 -58 61 -58 22 0 23
-4 23 -60 0 -56 -2 -60 -30 -75 -30 -16 -60 -61 -60 -91 0 -27 -94 -12 -170
26 -45 22 -79 32 -116 34 -49 1 -52 3 -63 33 -8 23 -22 36 -46 45 -34 12 -35
13 -35 68 1 51 3 57 32 75 33 21 42 33 58 79 10 28 12 28 60 22 27 -4 82 -22
122 -41z m-202 21 c0 -17 -48 -76 -61 -76 -5 0 -9 13 -9 30 0 22 7 33 28 44
34 19 42 19 42 2z m450 -71 c0 -38 -3 -45 -19 -45 -20 0 -51 34 -51 55 0 6 15
16 33 22 17 5 33 11 35 12 1 0 2 -19 2 -44z m-470 -185 c28 -28 25 -46 -11
-59 -18 -6 -34 -11 -35 -11 -2 0 -4 20 -4 45 0 51 16 59 50 25z m463 -91 c-4
-4 -20 -11 -35 -14 -39 -10 -37 18 5 58 l32 32 3 -34 c2 -18 0 -37 -5 -42z"/>
<path d="M273 396 c-24 -21 -28 -32 -28 -76 0 -44 4 -55 28 -76 35 -30 59 -30
94 0 24 21 28 32 28 76 0 44 -4 55 -28 76 -15 13 -37 24 -47 24 -10 0 -32 -11
-47 -24z m86 -22 c12 -15 21 -39 21 -54 0 -34 -35 -80 -60 -80 -25 0 -60 46
-60 80 0 34 35 80 60 80 10 0 28 -12 39 -26z"/>
</g>
</svg>
