<?xml version="1.0" standalone="no"?>
<!DOCTYPE svg PUBLIC "-//W3C//DTD SVG 20010904//EN"
 "http://www.w3.org/TR/2001/REC-SVG-20010904/DTD/svg10.dtd">
<svg version="1.0" xmlns="http://www.w3.org/2000/svg"
 width="30.000000pt" height="30.000000pt" viewBox="0 0 30.000000 30.000000"
 preserveAspectRatio="xMidYMid meet">

<g transform="translate(0.000000,30.000000) scale(0.100000,-0.100000)"
fill="#eaaf57" stroke="none">
<path d="M272 269 c2 -7 10 -15 17 -17 8 -3 12 1 9 9 -2 7 -10 15 -17 17 -8 3
-12 -1 -9 -9z"/>
<path d="M44 247 c-3 -8 -3 -56 -2 -108 l3 -94 105 0 105 0 3 68 c2 46 -1 67
-8 62 -5 -3 -10 -31 -10 -61 l0 -54 -90 0 -90 0 0 70 0 70 53 0 c46 0 57 4 82
30 l29 30 -87 0 c-64 0 -89 -4 -93 -13z"/>
<path d="M192 197 c-51 -52 -64 -77 -39 -77 19 0 120 107 113 119 -11 18 -19
14 -74 -42z"/>
</g>
</svg>
