<?xml version="1.0" standalone="no"?>
<!DOCTYPE svg PUBLIC "-//W3C//DTD SVG 20010904//EN"
 "http://www.w3.org/TR/2001/REC-SVG-20010904/DTD/svg10.dtd">
<svg version="1.0" xmlns="http://www.w3.org/2000/svg"
 width="64.000000pt" height="64.000000pt" viewBox="0 0 64.000000 64.000000"
 preserveAspectRatio="xMidYMid meet">

<g transform="translate(0.000000,64.000000) scale(0.100000,-0.100000)"
   fill="#eaaf57" stroke="none">
<path d="M4 616 c-9 -23 0 -51 16 -51 10 0 15 10 15 29 0 32 -21 47 -31 22z"/>
<path d="M422 608 c-7 -7 -12 -24 -12 -38 0 -31 -62 -94 -103 -104 -33 -8 -71
15 -90 53 -14 29 -41 38 -62 21 -32 -27 -8 -85 32 -78 28 4 83 -23 83 -41 0
-23 20 -41 45 -41 27 0 45 18 45 47 0 28 66 103 90 103 10 0 25 7 34 15 10 10
35 15 80 15 52 0 66 3 66 15 0 12 -14 15 -66 15 -45 0 -70 5 -80 15 -18 18
-46 19 -62 3z m48 -33 c0 -8 -7 -15 -15 -15 -8 0 -15 7 -15 15 0 8 7 15 15 15
8 0 15 -7 15 -15z m-280 -70 c0 -8 -4 -15 -10 -15 -5 0 -10 7 -10 15 0 8 5 15
10 15 6 0 10 -7 10 -15z m140 -86 c0 -5 -7 -9 -15 -9 -15 0 -20 12 -9 23 8 8
24 -1 24 -14z"/>
<path d="M7 474 c-4 -4 -7 -107 -7 -229 0 -176 3 -225 14 -234 20 -17 608 -11
614 7 3 9 -60 12 -292 12 l-296 0 -2 222 c-3 209 -8 245 -31 222z"/>
<path d="M406 394 c-8 -20 -8 -278 0 -298 9 -22 89 -22 98 0 8 20 8 278 0 298
-4 11 -19 16 -49 16 -30 0 -45 -5 -49 -16z m64 -149 c0 -113 -2 -135 -15 -135
-13 0 -15 22 -15 135 0 113 2 135 15 135 13 0 15 -22 15 -135z"/>
<path d="M130 205 l0 -125 50 0 50 0 0 125 0 125 -50 0 -50 0 0 -125z m70 0
c0 -88 -1 -95 -20 -95 -19 0 -20 7 -20 95 0 88 1 95 20 95 19 0 20 -7 20 -95z"/>
<path d="M266 244 c-8 -20 -8 -128 0 -148 9 -22 89 -22 98 0 8 20 8 128 0 148
-4 11 -19 16 -49 16 -30 0 -45 -5 -49 -16z m64 -74 c0 -47 -3 -60 -15 -60 -12
0 -15 13 -15 60 0 47 3 60 15 60 12 0 15 -13 15 -60z"/>
</g>
</svg>
