<?xml version="1.0" standalone="no"?>
<!DOCTYPE svg PUBLIC "-//W3C//DTD SVG 20010904//EN"
 "http://www.w3.org/TR/2001/REC-SVG-20010904/DTD/svg10.dtd">
<svg version="1.0" xmlns="http://www.w3.org/2000/svg"
 width="64.000000pt" height="64.000000pt" viewBox="0 0 64.000000 64.000000"
 preserveAspectRatio="xMidYMid meet">

<g transform="translate(0.000000,64.000000) scale(0.100000,-0.100000)"
   fill="#eaaf57" stroke="none">
<path d="M22 557 c-21 -22 -22 -32 -22 -198 0 -171 1 -176 23 -197 20 -19 35
-22 115 -22 l92 0 0 -32 c0 -21 -9 -41 -26 -59 -14 -15 -23 -32 -20 -38 10
-15 262 -15 272 0 3 6 -6 23 -20 38 -17 18 -26 38 -26 59 l0 32 93 0 c85 0 96
2 115 23 21 22 22 32 22 198 0 240 31 219 -321 219 -275 0 -276 0 -297 -23z
m582 -13 c13 -13 16 -42 16 -165 l0 -149 -300 0 -300 0 0 149 c0 123 3 152 16
165 23 24 545 24 568 0z m16 -343 c0 -5 -7 -17 -16 -25 -23 -24 -545 -24 -568
0 -9 8 -16 20 -16 25 0 5 122 9 300 9 178 0 300 -4 300 -9z"/>
<path d="M270 515 c-18 -20 -22 -31 -17 -62 5 -26 2 -42 -9 -54 -9 -10 -14
-26 -12 -36 3 -16 14 -18 88 -18 74 0 85 2 88 18 2 10 -4 27 -13 37 -12 13
-15 27 -9 55 13 71 -66 113 -116 60z"/>
<path d="M194 305 c-3 -8 -3 -22 0 -30 5 -13 26 -15 128 -13 l123 3 0 25 0 25
-123 3 c-102 2 -123 0 -128 -13z m236 -15 c0 -6 -43 -10 -110 -10 -67 0 -110
4 -110 10 0 6 43 10 110 10 67 0 110 -4 110 -10z"/>
</g>
</svg>
