<?xml version="1.0" standalone="no"?>
<!DOCTYPE svg PUBLIC "-//W3C//DTD SVG 20010904//EN"
 "http://www.w3.org/TR/2001/REC-SVG-20010904/DTD/svg10.dtd">
<svg version="1.0" xmlns="http://www.w3.org/2000/svg"
 width="58.000000pt" height="58.000000pt" viewBox="0 0 58.000000 58.000000"
 preserveAspectRatio="xMidYMid meet">

<g transform="translate(0.000000,58.000000) scale(0.100000,-0.100000)"
   fill="#eaaf57" stroke="none">
<path d="M195 530 c-30 -39 -31 -39 -100 -40 -41 0 -76 -5 -83 -12 -17 -17
-17 -439 0 -456 17 -17 539 -17 556 0 17 17 17 439 0 456 -7 7 -39 12 -74 12
-60 0 -62 1 -89 40 -15 22 -32 40 -38 40 -6 0 -24 -12 -39 -27 l-28 -27 -28
27 c-15 15 -32 27 -38 27 -5 -1 -22 -19 -39 -40z m98 -71 l48 -59 -101 0 -102
0 49 59 c26 33 50 60 53 60 3 0 27 -27 53 -60z m147 -55 c0 -3 -12 -4 -26 -2
-17 2 -39 18 -57 40 -29 37 -30 38 -12 58 17 19 18 19 56 -36 22 -30 39 -57
39 -60z m-320 39 c0 -16 -35 -43 -57 -43 -18 0 -23 5 -23 25 0 23 4 25 40 25
22 0 40 -3 40 -7z m420 -18 c0 -20 -5 -25 -24 -25 -14 0 -30 10 -40 25 l-16
25 40 0 c36 0 40 -2 40 -25z m0 -90 c0 -24 -2 -25 -65 -25 -82 0 -105 -19
-105 -84 0 -68 23 -89 104 -94 l66 -4 0 -39 0 -39 -250 0 -250 0 0 155 0 155
250 0 250 0 0 -25z m0 -115 l0 -50 -53 0 c-29 0 -58 5 -65 12 -13 13 -17 70
-5 81 3 4 33 7 65 7 l58 0 0 -50z"/>
<path d="M451 240 c-14 -8 -8 -40 7 -40 5 0 15 6 21 14 15 17 -8 39 -28 26z"/>
</g>
</svg>
