<svg xmlns="http://www.w3.org/2000/svg" fill="#eaaf57"  viewBox="0 0 64 64" width="64px" height="64px"><path d="M 13 6 C 9.1482075 6 6 9.1482075 6 13 L 6 34.755859 A 1.0001 1.0001 0 0 0 6 35.230469 L 6 51 C 6 54.851793 9.1482075 58 13 58 L 51 58 C 54.851793 58 58 54.851793 58 51 L 58 24.212891 A 1.0001 1.0001 0 0 0 58 23.738281 L 58 13 C 58 9.1482075 54.851793 6 51 6 L 13 6 z M 13 8 L 13.5 8 L 13.5 35.816406 L 8 34.246094 L 8 13 C 8 10.231793 10.231793 8 13 8 z M 14.5 8 L 22.5 8 L 22.5 32.78125 L 20.640625 31.232422 A 1.0001 1.0001 0 0 0 19.199219 31.400391 L 16.386719 35.150391 L 14.5 35.779297 L 14.5 8 z M 23.5 8 L 31.5 8 L 31.5 35.462891 L 29.802734 34.332031 L 26.919922 27.605469 A 1.0001 1.0001 0 0 0 25.091797 27.580078 L 23.5 31.029297 L 23.5 8 z M 32.5 8 L 40.5 8 L 40.5 19.050781 C 38.537742 19.301644 37 20.972982 37 23 C 37 24.351158 37.787249 25.413944 38.828125 26.134766 L 37.253906 30.611328 L 34.835938 31.013672 A 1.0001 1.0001 0 0 0 34.142578 31.486328 L 32.5 34.224609 L 32.5 8 z M 41.5 8 L 49.5 8 L 49.5 30.222656 L 47.857422 27.486328 A 1.0001 1.0001 0 0 0 46.445312 27.167969 L 44.445312 28.501953 L 43.376953 26.011719 C 44.301421 25.27698 45 24.266016 45 23 C 45 20.972982 43.462258 19.301644 41.5 19.050781 L 41.5 8 z M 50.5 8 L 51 8 C 53.768207 8 56 10.231793 56 13 L 56 23.546875 L 52.341797 26.748047 A 1.0001 1.0001 0 0 0 52.123047 27.021484 L 50.5 29.996094 L 50.5 8 z M 41 21 C 42.121847 21 43 21.878153 43 23 C 43 23.819347 42.51229 24.496242 41.822266 24.8125 A 1.0001 1.0001 0 0 0 41.734375 24.849609 C 41.501963 24.938969 41.256077 25 41 25 A 1.0001 1.0001 0 0 0 40.664062 25.054688 A 1.0001 1.0001 0 0 0 40.294922 24.851562 C 39.542316 24.578162 39 23.873977 39 23 C 39 21.878153 39.878153 21 41 21 z M 56 26.203125 L 56 51 C 56 53.768207 53.768207 56 51 56 L 50.5 56 L 50.5 33.863281 A 1.0001 1.0001 0 0 0 50.876953 33.478516 L 53.792969 28.134766 L 56 26.203125 z M 41.574219 26.882812 L 43.082031 30.394531 A 1.0001 1.0001 0 0 0 44.554688 30.832031 L 46.681641 29.414062 L 49.142578 33.513672 A 1.0001 1.0001 0 0 0 49.5 33.865234 L 49.5 56 L 41.5 56 L 41.5 26.900391 C 41.524951 26.89482 41.548531 26.886768 41.574219 26.882812 z M 40.5 27.412109 L 40.5 56 L 32.5 56 L 32.5 37.865234 A 1.0001 1.0001 0 0 0 32.857422 37.513672 L 35.619141 32.910156 L 38.164062 32.486328 A 1.0001 1.0001 0 0 0 38.943359 31.832031 L 40.5 27.412109 z M 25.966797 30.460938 L 28.080078 35.394531 A 1.0001 1.0001 0 0 0 28.445312 35.832031 L 31.445312 37.832031 A 1.0001 1.0001 0 0 0 31.5 37.865234 L 31.5 56 L 23.5 56 L 23.5 35.365234 A 1.0001 1.0001 0 0 0 23.908203 34.919922 L 25.966797 30.460938 z M 20.167969 33.441406 L 22.359375 35.267578 A 1.0001 1.0001 0 0 0 22.5 35.363281 L 22.5 56 L 14.5 56 L 14.5 37.888672 L 17.316406 36.949219 A 1.0001 1.0001 0 0 0 17.800781 36.599609 L 20.167969 33.441406 z M 8 36.326172 L 13.5 37.896484 L 13.5 56 L 13 56 C 10.231793 56 8 53.768207 8 51 L 8 36.326172 z"/></svg>