<?xml version="1.0" standalone="no"?>
<!DOCTYPE svg PUBLIC "-//W3C//DTD SVG 20010904//EN"
 "http://www.w3.org/TR/2001/REC-SVG-20010904/DTD/svg10.dtd">
<svg version="1.0" xmlns="http://www.w3.org/2000/svg"
 width="50.000000pt" height="50.000000pt" viewBox="0 0 50.000000 50.000000"
 preserveAspectRatio="xMidYMid meet">

<g transform="translate(0.000000,50.000000) scale(0.100000,-0.100000)"
   fill="#eaaf57" stroke="none">
<path d="M95 486 c-124 -56 -123 -240 2 -292 49 -21 59 -18 76 26 15 40 15 40
-7 40 -24 0 -56 28 -56 48 0 7 -4 12 -9 12 -9 0 -10 31 -1 40 3 3 14 18 23 33
15 23 24 28 50 25 18 -2 30 -7 27 -13 -3 -5 -16 -8 -29 -6 -21 2 -40 -12 -41
-31 0 -5 15 -9 33 -9 l32 -2 -35 -7 c-32 -7 -33 -7 -7 -9 31 -1 28 -21 -4 -21
-22 0 -24 -11 -7 -28 18 -18 37 -15 111 21 65 31 67 33 62 62 -16 92 -134 151
-220 111z"/>
<path d="M370 465 l-24 -26 27 -26 c27 -28 50 -26 27 2 -11 13 -8 15 18 15 42
0 62 -23 62 -71 0 -21 5 -39 10 -39 6 0 10 19 10 43 0 54 -30 87 -80 87 -26 0
-31 3 -22 12 7 7 12 16 12 20 0 15 -17 8 -40 -17z"/>
<path d="M275 306 c-101 -44 -125 -178 -46 -257 65 -65 157 -65 222 0 124 124
-15 327 -176 257z m111 -103 c-5 -4 -11 -2 -13 5 -7 20 -23 14 -23 -9 0 -12
11 -32 24 -44 28 -26 25 -64 -6 -72 -10 -3 -18 -10 -18 -15 0 -5 -13 0 -30 12
-16 12 -30 29 -30 38 1 16 2 16 14 0 19 -25 26 -22 26 11 0 20 -6 30 -20 34
-30 8 -26 51 7 75 l27 19 25 -23 c14 -13 21 -27 17 -31z"/>
<path d="M315 207 c-4 -10 -5 -21 -1 -24 10 -10 18 4 13 24 -4 17 -4 17 -12 0z"/>
<path d="M350 126 c0 -14 5 -26 10 -26 6 0 10 9 10 19 0 11 -4 23 -10 26 -6 4
-10 -5 -10 -19z"/>
<path d="M0 137 c0 -54 30 -87 79 -87 29 0 32 -2 21 -15 -23 -28 0 -29 28 -2
l27 27 -27 27 c-28 27 -51 26 -28 -2 11 -13 8 -15 -18 -15 -42 0 -62 23 -62
71 0 21 -4 39 -10 39 -5 0 -10 -19 -10 -43z"/>
</g>
</svg>
