<?xml version="1.0" standalone="no"?>
<!DOCTYPE svg PUBLIC "-//W3C//DTD SVG 20010904//EN"
 "http://www.w3.org/TR/2001/REC-SVG-20010904/DTD/svg10.dtd">
<svg version="1.0" xmlns="http://www.w3.org/2000/svg"
 width="64.000000pt" height="64.000000pt" viewBox="0 0 64.000000 64.000000"
 preserveAspectRatio="xMidYMid meet">

<g transform="translate(0.000000,64.000000) scale(0.100000,-0.100000)"
   fill="#eaaf57" stroke="none">
<path d="M544 585 c-8 -21 2 -45 19 -45 21 0 38 25 31 44 -8 20 -43 21 -50 1z"/>
<path d="M480 570 c0 -5 5 -10 10 -10 6 0 10 5 10 10 0 6 -4 10 -10 10 -5 0
-10 -4 -10 -10z"/>
<path d="M210 560 c0 -5 5 -10 10 -10 6 0 10 5 10 10 0 6 -4 10 -10 10 -5 0
-10 -4 -10 -10z"/>
<path d="M329 535 c-61 -33 -81 -126 -39 -185 12 -16 27 -31 33 -32 7 -1 -17
-4 -53 -8 -48 -5 -25 -7 85 -7 83 -1 139 2 125 6 -21 6 -22 9 -9 17 70 42 62
169 -13 210 -30 17 -97 17 -129 -1z m113 -75 c33 0 36 -13 8 -33 -17 -12 -19
-19 -11 -41 8 -20 7 -26 -3 -26 -7 0 -19 7 -26 15 -11 13 -15 13 -33 0 -30
-21 -38 -19 -27 9 7 19 5 28 -11 42 -26 23 -24 34 6 34 18 0 29 8 37 28 l11
27 10 -27 c8 -21 18 -28 39 -28z"/>
<path d="M386 462 c-4 -12 -14 -22 -23 -22 -12 0 -13 -3 -4 -14 6 -7 8 -22 4
-32 -6 -17 -5 -17 9 -6 12 10 22 11 36 3 17 -9 19 -8 15 10 -4 12 0 25 8 30
11 7 10 9 -4 9 -10 0 -21 10 -26 22 l-8 23 -7 -23z"/>
<path d="M92 488 c-30 -30 0 -75 42 -64 29 7 40 31 26 57 -12 21 -50 25 -68 7z"/>
<path d="M555 330 c-3 -5 1 -10 10 -10 9 0 13 5 10 10 -3 6 -8 10 -10 10 -2 0
-7 -4 -10 -10z"/>
<path d="M160 300 c0 -5 5 -10 10 -10 6 0 10 5 10 10 0 6 -4 10 -10 10 -5 0
-10 -4 -10 -10z"/>
<path d="M47 247 c-3 -8 -2 -20 3 -27 11 -18 42 -4 38 17 -4 22 -34 29 -41 10z"/>
<path d="M465 229 c-48 -22 -94 -24 -159 -4 -39 12 -57 13 -82 5 -31 -10 -94
-70 -94 -89 0 -4 18 -16 40 -26 40 -18 41 -18 61 4 15 16 28 21 43 16 66 -19
84 -17 170 21 91 38 107 54 86 79 -15 18 -15 18 -65 -6z"/>
<path d="M50 140 c0 -5 5 -10 10 -10 6 0 10 5 10 10 0 6 -4 10 -10 10 -5 0
-10 -4 -10 -10z"/>
<path d="M570 130 c0 -5 5 -10 10 -10 6 0 10 5 10 10 0 6 -4 10 -10 10 -5 0
-10 -4 -10 -10z"/>
<path d="M116 105 c-8 -21 74 -61 86 -42 12 19 10 24 -19 35 -16 5 -35 13 -44
17 -10 4 -19 0 -23 -10z"/>
<path d="M464 105 c-4 -9 0 -23 8 -31 20 -20 50 -7 46 20 -4 26 -45 35 -54 11z"/>
<path d="M370 70 c0 -5 5 -10 10 -10 6 0 10 5 10 10 0 6 -4 10 -10 10 -5 0
-10 -4 -10 -10z"/>
</g>
</svg>
