<?xml version="1.0" standalone="no"?>
<!DOCTYPE svg PUBLIC "-//W3C//DTD SVG 20010904//EN"
 "http://www.w3.org/TR/2001/REC-SVG-20010904/DTD/svg10.dtd">
<svg version="1.0" xmlns="http://www.w3.org/2000/svg"
 width="50.000000pt" height="50.000000pt" viewBox="0 0 50.000000 50.000000"
 preserveAspectRatio="xMidYMid meet">

<g transform="translate(0.000000,50.000000) scale(0.100000,-0.100000)"
   fill="#eaaf57" stroke="none">
<path d="M95 486 c-124 -56 -123 -240 2 -292 49 -21 59 -18 76 26 8 22 11 40
6 40 -5 0 -9 -5 -9 -11 0 -6 -13 -1 -30 11 -16 12 -30 29 -30 38 1 16 2 16 14
0 19 -25 26 -22 26 11 0 20 -6 30 -20 34 -30 8 -26 51 8 75 27 19 27 19 51 -4
14 -13 21 -27 17 -31 -5 -4 -11 -2 -13 5 -7 20 -23 14 -23 -9 0 -11 12 -33 27
-48 l27 -27 49 20 c46 19 48 22 43 51 -18 92 -135 151 -221 111z"/>
<path d="M370 465 l-24 -26 27 -26 c27 -28 50 -26 27 2 -11 13 -8 15 18 15 42
0 62 -23 62 -71 0 -21 5 -39 10 -39 6 0 10 19 10 43 0 54 -30 87 -80 87 -26 0
-31 3 -22 12 7 7 12 16 12 20 0 15 -17 8 -40 -17z"/>
<path d="M130 380 c0 -11 5 -20 10 -20 6 0 10 9 10 20 0 11 -4 20 -10 20 -5 0
-10 -9 -10 -20z"/>
<path d="M170 306 c0 -14 5 -26 10 -26 6 0 10 9 10 19 0 11 -4 23 -10 26 -6 4
-10 -5 -10 -19z"/>
<path d="M274 306 c-17 -8 -44 -31 -60 -52 -24 -31 -29 -47 -29 -95 0 -43 5
-65 21 -85 70 -95 192 -98 262 -6 22 29 27 46 27 93 0 62 -17 94 -67 132 -34
25 -113 32 -154 13z m73 -68 c9 23 46 -36 39 -63 -3 -13 -2 -27 4 -30 16 -10
11 -30 -14 -58 -16 -17 -26 -22 -29 -14 -4 9 -8 8 -16 -3 -7 -10 -11 -11 -11
-2 0 6 -7 12 -15 12 -12 0 -15 15 -15 75 0 60 3 75 15 75 8 0 15 6 15 13 0 8
4 7 11 -3 8 -11 12 -12 16 -2z"/>
<path d="M310 190 c0 -16 7 -20 30 -20 23 0 30 4 30 20 0 16 -7 20 -30 20 -23
0 -30 -4 -30 -20z"/>
<path d="M310 125 c0 -24 3 -26 33 -23 24 2 32 8 32 23 0 15 -8 21 -32 23 -30
3 -33 1 -33 -23z"/>
<path d="M10 137 c0 -52 30 -87 74 -87 24 0 27 -2 16 -15 -23 -28 0 -29 28 -2
l27 27 -27 27 c-28 27 -51 26 -28 -2 11 -13 9 -15 -13 -15 -37 0 -57 25 -57
71 0 21 -4 39 -10 39 -5 0 -10 -19 -10 -43z"/>
</g>
</svg>
