<?xml version="1.0" standalone="no"?>
<!DOCTYPE svg PUBLIC "-//W3C//DTD SVG 20010904//EN"
 "http://www.w3.org/TR/2001/REC-SVG-20010904/DTD/svg10.dtd">
<svg version="1.0" xmlns="http://www.w3.org/2000/svg"
 width="50.000000pt" height="50.000000pt" viewBox="0 0 50.000000 50.000000"
 preserveAspectRatio="xMidYMid meet">

<g transform="translate(0.000000,50.000000) scale(0.100000,-0.100000)"
fill="#eaaf57" stroke="none">
<path d="M169 466 c-89 -31 -149 -113 -149 -201 0 -17 11 -54 25 -81 30 -59
31 -70 5 -112 -35 -57 -4 -69 73 -28 38 21 55 24 100 19 100 -10 190 36 232
120 32 64 32 110 0 174 -51 101 -175 149 -286 109z m178 -30 c72 -34 108 -89
108 -166 0 -79 -36 -132 -112 -167 -48 -22 -65 -25 -119 -20 -55 5 -69 3 -109
-20 -51 -28 -65 -26 -41 9 22 32 20 59 -10 115 -50 94 -12 202 89 249 67 31
127 31 194 0z"/>
<path d="M156 369 c-3 -8 -14 -39 -26 -69 -11 -30 -20 -58 -20 -62 0 -16 19
-7 25 12 4 13 15 20 30 20 15 0 26 -7 30 -20 6 -18 25 -29 25 -14 0 13 -43
129 -51 138 -5 6 -10 3 -13 -5z m24 -71 c0 -5 -7 -8 -15 -8 -17 0 -18 2 -9 25
5 13 8 14 15 3 5 -7 9 -16 9 -20z"/>
<path d="M320 295 c0 -10 -10 -15 -30 -15 -51 0 -33 -19 21 -22 l51 -3 -20
-25 c-20 -25 -21 -25 -36 -5 -8 11 -18 17 -22 13 -4 -5 1 -17 11 -28 17 -19
17 -20 -9 -31 -14 -7 -26 -16 -26 -21 0 -11 11 -10 39 6 21 12 28 12 48 -1 30
-20 44 -8 15 12 l-21 15 20 35 c12 19 25 35 30 35 5 0 9 5 9 10 0 6 -13 10
-30 10 -20 0 -30 5 -30 15 0 8 -4 15 -10 15 -5 0 -10 -7 -10 -15z"/>
</g>
</svg>
