<?xml version="1.0" standalone="no"?>
<!DOCTYPE svg PUBLIC "-//W3C//DTD SVG 20010904//EN"
 "http://www.w3.org/TR/2001/REC-SVG-20010904/DTD/svg10.dtd">
<svg version="1.0" xmlns="http://www.w3.org/2000/svg"
 width="50.000000pt" height="50.000000pt" viewBox="0 0 50.000000 50.000000"
 preserveAspectRatio="xMidYMid meet">

<g transform="translate(0.000000,50.000000) scale(0.100000,-0.100000)"
fill="#eaaf57" stroke="none">
<path d="M16 414 c-23 -23 -23 -305 0 -328 23 -24 445 -24 468 0 23 23 23 305
0 328 -23 24 -445 24 -468 0z m459 -164 l0 -155 -225 0 -225 0 -3 145 c-1 79
0 150 2 157 4 11 51 13 228 11 l223 -3 0 -155z"/>
<path d="M108 240 c13 -38 30 -70 37 -70 6 0 19 26 29 58 10 31 21 63 23 70 3
6 0 12 -5 12 -6 0 -19 -25 -28 -55 -10 -30 -20 -52 -23 -49 -3 3 -13 26 -22
52 -8 25 -20 47 -26 49 -6 2 1 -28 15 -67z"/>
<path d="M240 240 c0 -40 4 -70 10 -70 6 0 10 30 10 70 0 40 -4 70 -10 70 -6
0 -10 -30 -10 -70z"/>
<path d="M310 241 c0 -41 4 -71 10 -71 6 0 10 13 10 29 0 27 3 30 36 33 79 7
71 71 -10 76 l-46 3 0 -70z m80 49 c21 -14 0 -45 -31 -45 -19 0 -25 6 -27 28
-3 23 0 27 20 27 13 0 30 -5 38 -10z"/>
</g>
</svg>
