<?xml version="1.0" standalone="no"?>
<!DOCTYPE svg PUBLIC "-//W3C//DTD SVG 20010904//EN"
 "http://www.w3.org/TR/2001/REC-SVG-20010904/DTD/svg10.dtd">
<svg version="1.0" xmlns="http://www.w3.org/2000/svg"
 width="50.000000pt" height="50.000000pt" viewBox="0 0 50.000000 50.000000"
 preserveAspectRatio="xMidYMid meet">

<g transform="translate(0.000000,50.000000) scale(0.100000,-0.100000)"
fill="#eaaf57" stroke="none">
<path d="M198 434 c-30 -16 -58 -61 -58 -94 0 -53 57 -110 110 -110 53 0 110
57 110 110 0 34 -28 78 -60 95 -36 19 -67 19 -102 -1z m113 -33 c39 -40 39
-82 0 -122 -20 -20 -39 -29 -61 -29 -22 0 -41 9 -61 29 -39 40 -39 82 0 122
20 20 39 29 61 29 22 0 41 -9 61 -29z"/>
<path d="M230 390 c-22 -30 -19 -43 13 -58 15 -7 27 -17 27 -23 0 -14 -38 -11
-43 4 -2 6 -8 9 -13 4 -4 -4 2 -17 14 -29 21 -21 22 -21 42 -3 28 26 25 45
-10 58 -16 6 -30 15 -30 19 0 14 22 20 33 9 21 -21 28 -11 10 14 -22 30 -25
30 -43 5z"/>
<path d="M68 198 c-27 -11 -48 -25 -48 -30 0 -10 31 -3 72 18 38 20 74 17 107
-7 16 -12 50 -24 75 -26 74 -9 50 -28 -32 -27 -71 0 -93 -8 -49 -20 12 -3 45
-6 72 -6 42 0 60 7 110 40 59 39 85 49 85 31 0 -10 -183 -131 -198 -131 -5 0
-40 14 -76 31 -63 30 -68 30 -91 15 -14 -9 -25 -21 -25 -27 0 -7 10 -5 25 5
24 16 28 15 85 -14 33 -16 68 -30 78 -30 23 0 209 119 217 139 9 24 -14 38
-80 51 -60 11 -67 11 -98 -9 -43 -26 -62 -26 -94 -1 -32 25 -74 24 -135 -2z
m268 -13 c-11 -8 -27 -15 -35 -15 -10 1 -7 6 9 15 33 19 50 18 26 0z m44 -19
c-19 -13 -37 -22 -40 -19 -8 7 40 43 58 43 10 0 2 -10 -18 -24z"/>
</g>
</svg>
